<svg width="79" height="42" viewBox="0 0 79 42" fill="none" xmlns="http://www.w3.org/2000/svg">
<path d="M57.5 12C57.5 18.6274 48.7696 24 38 24C27.2304 24 20 25.1274 20 18.5C20 11.8726 27.2304 0 38 0C48.7696 0 57.5 5.37258 57.5 12Z" fill="#FF6B00"/>
<path d="M44 18C44 24.6274 35.2696 30 24.5 30C13.7304 30 6.5 31.1274 6.5 24.5C6.5 17.8726 13.7304 6 24.5 6C35.2696 6 44 11.3726 44 18Z" fill="#C4C4C4"/>
<path d="M29.3212 31.5C29.3212 33.9853 25.9633 36 21.8212 36C17.679 36 14.3212 33.9853 14.3212 31.5C14.3212 29.0147 12.679 23 16.8212 23C20.9633 23 29.3212 29.0147 29.3212 31.5Z" fill="#67A4FF"/>
<path d="M76 31C76 35.4183 59.6584 39 39.5 39C19.3416 39 3 35.4183 3 31" stroke="#5286D3"/>
<path d="M78 31C78 36.5228 60.763 41 39.5 41C18.237 41 1 36.5228 1 31" stroke="#FAD03A"/>
<path d="M73.5 24C73.5 30.6274 64.7696 36 54 36C43.2304 36 36 37.1274 36 30.5C36 23.8726 43.2304 12 54 12C64.7696 12 73.5 17.3726 73.5 24Z" fill="#6EC200"/>
</svg>
